<svg xmlns="http://www.w3.org/2000/svg" width="64" height="64" fill="none" viewBox="0 0 64 64">
  <defs>
    <linearGradient id="cloud-fill" x1="15" x2="49" y1="11" y2="55" gradientUnits="userSpaceOnUse">
      <stop stop-color="#9ee0ff"/>
      <stop offset=".48" stop-color="#2f9fff"/>
      <stop offset="1" stop-color="#006edc"/>
    </linearGradient>
    <linearGradient id="cloud-gloss" x1="19" x2="46" y1="13" y2="37" gradientUnits="userSpaceOnUse">
      <stop stop-color="#fff" stop-opacity=".82"/>
      <stop offset="1" stop-color="#fff" stop-opacity="0"/>
    </linearGradient>
    <filter id="cloud-shadow" width="56" height="48" x="4" y="10" color-interpolation-filters="sRGB" filterUnits="userSpaceOnUse">
      <feDropShadow dx="0" dy="4" flood-color="#006edc" flood-opacity=".24" stdDeviation="4"/>
    </filter>
  </defs>
  <rect width="64" height="64" fill="#f5fbff" rx="16"/>
  <g filter="url(#cloud-shadow)">
    <path fill="url(#cloud-fill)" d="M47.3 49H17.4C9.6 49 4 44.2 4 37.8c0-5.7 4.7-10.3 11-10.8C17.6 21.3 23.4 17.6 30.4 17.6c9 0 16.5 6.2 17.4 14.2 5.6 1 9.7 4.4 9.7 8.9 0 4.9-4.4 8.3-10.2 8.3Z"/>
    <path fill="url(#cloud-gloss)" d="M14.3 28.9c3.5-5.7 9.3-8.8 16.1-8.8 7.8 0 14.3 5.2 15.4 12.5 4.1.7 7 2.7 8.3 5.4-4.6-2.3-9.3-2-13.8-1.1-6.2 1.2-12.1 3.1-19 1-3.6-1.1-6-3.6-7-9Z"/>
  </g>
</svg>
